<svg xmlns="http://www.w3.org/2000/svg" viewBox="0 0 360 80" role="img" aria-label="Meringo Listen">
  <defs>
    <linearGradient id="lg-gld" x1="0" y1="0" x2="0" y2="1">
      <stop offset="0%" stop-color="#F4D080"/>
      <stop offset="100%" stop-color="#C89040"/>
    </linearGradient>
  </defs>
  <g transform="translate(0,0)">
    <rect width="80" height="80" rx="18" fill="#1A0E2E"/>
    <circle cx="40" cy="40" r="33" fill="none" stroke="#E8B560" stroke-opacity="0.28" stroke-width="0.75"/>
    <path d="M16 50 Q40 42 64 50" fill="none" stroke="#9b7fd4" stroke-opacity="0.5" stroke-width="1.4"/>
    <path d="M16 50 Q40 42 64 50 L64 54 Q40 46 16 54 Z" fill="#261840"/>
    <g fill="url(#lg-gld)">
      <rect x="24" y="38" width="3" height="10" rx="1.5"/>
      <rect x="30" y="32" width="3" height="16" rx="1.5"/>
      <rect x="36" y="27" width="3" height="21" rx="1.5"/>
      <rect x="42" y="30" width="3" height="18" rx="1.5"/>
      <rect x="48" y="34" width="3" height="14" rx="1.5"/>
      <rect x="54" y="39" width="3" height="9" rx="1.5"/>
    </g>
    <circle cx="37.5" cy="23" r="2" fill="#E8B560"/>
  </g>
  <text x="98" y="51" font-family="'Cormorant Garamond', Georgia, serif" font-size="38" font-weight="500" letter-spacing="-0.5">
    <tspan fill="#F4E8D0">Meringo </tspan><tspan fill="#E8B560">Listen</tspan>
  </text>
</svg>
